<svg width="186" height="30" viewBox="0 0 186 30" fill="none" xmlns="http://www.w3.org/2000/svg">
<rect x="0.6" y="0.6" width="47.8" height="27.8" rx="3.4" stroke="#00293E" stroke-width="1.2"/>
<path d="M20.5312 16.4531H21.4922C21.4141 17.2188 21.2031 17.8802 20.8594 18.4375C20.5156 18.9896 20.0469 19.4141 19.4531 19.7109C18.8594 20.0078 18.1432 20.1562 17.3047 20.1562C16.6589 20.1562 16.0729 20.0339 15.5469 19.7891C15.026 19.5443 14.5781 19.1979 14.2031 18.75C13.8281 18.2969 13.5391 17.7552 13.3359 17.125C13.1328 16.4948 13.0312 15.7943 13.0312 15.0234V13.6016C13.0312 12.8307 13.1328 12.1328 13.3359 11.5078C13.5391 10.8776 13.8307 10.3359 14.2109 9.88281C14.5911 9.42969 15.0469 9.08073 15.5781 8.83594C16.1094 8.59115 16.7083 8.46875 17.375 8.46875C18.1823 8.46875 18.8802 8.61719 19.4688 8.91406C20.0573 9.20573 20.5208 9.6276 20.8594 10.1797C21.2031 10.7318 21.4141 11.3984 21.4922 12.1797H20.5312C20.4583 11.5651 20.2969 11.0443 20.0469 10.6172C19.7969 10.1901 19.4505 9.86458 19.0078 9.64062C18.5703 9.41146 18.026 9.29688 17.375 9.29688C16.8438 9.29688 16.3698 9.39844 15.9531 9.60156C15.5365 9.80469 15.1823 10.0964 14.8906 10.4766C14.599 10.8516 14.375 11.3021 14.2188 11.8281C14.0677 12.3542 13.9922 12.9401 13.9922 13.5859V15.0234C13.9922 15.6484 14.0651 16.224 14.2109 16.75C14.3568 17.276 14.5703 17.7318 14.8516 18.1172C15.138 18.5026 15.487 18.8021 15.8984 19.0156C16.3099 19.2292 16.7786 19.3359 17.3047 19.3359C17.9766 19.3359 18.5365 19.2292 18.9844 19.0156C19.4375 18.7969 19.7891 18.474 20.0391 18.0469C20.2891 17.6198 20.4531 17.0885 20.5312 16.4531ZM26.8125 11.5469V12.3125H22.5781V11.5469H26.8125ZM24.1328 9.375H25.0625V17.9453C25.0625 18.3359 25.1146 18.6302 25.2188 18.8281C25.3229 19.026 25.4583 19.1589 25.625 19.2266C25.7917 19.2943 25.9714 19.3281 26.1641 19.3281C26.3047 19.3281 26.4401 19.3203 26.5703 19.3047C26.7005 19.2839 26.8177 19.263 26.9219 19.2422L26.9609 20.0312C26.8464 20.0677 26.6979 20.0964 26.5156 20.1172C26.3333 20.1432 26.151 20.1562 25.9688 20.1562C25.6094 20.1562 25.2917 20.0911 25.0156 19.9609C24.7396 19.8255 24.5234 19.5964 24.3672 19.2734C24.2109 18.9453 24.1328 18.5 24.1328 17.9375V9.375ZM29.7031 12.9453V20H28.7734V11.5469H29.6797L29.7031 12.9453ZM32.6953 11.4844L32.6719 12.3438C32.5677 12.3281 32.4661 12.3151 32.3672 12.3047C32.2682 12.2943 32.1615 12.2891 32.0469 12.2891C31.6406 12.2891 31.2839 12.3646 30.9766 12.5156C30.6745 12.6615 30.4193 12.8672 30.2109 13.1328C30.0026 13.3932 29.8438 13.7005 29.7344 14.0547C29.625 14.4036 29.5625 14.7786 29.5469 15.1797L29.2031 15.3125C29.2031 14.7604 29.2604 14.2474 29.375 13.7734C29.4896 13.2995 29.6641 12.8854 29.8984 12.5312C30.138 12.1719 30.4375 11.8932 30.7969 11.6953C31.1615 11.4922 31.5885 11.3906 32.0781 11.3906C32.1979 11.3906 32.3151 11.401 32.4297 11.4219C32.5495 11.4375 32.638 11.4583 32.6953 11.4844ZM35.2031 8V20H34.2734V8H35.2031Z" fill="#00293E"/>
<path d="M109.797 17.5947H102.992C102.723 17.5947 102.465 17.7032 102.277 17.8957L97.7152 22.5638C97.0886 23.205 96 22.7613 96 21.8649V5.22598C96 4.36327 97.0192 3.90541 97.6641 4.47838L110.461 15.8471C111.149 16.4578 110.717 17.5947 109.797 17.5947Z" stroke="#00293E" stroke-width="1.2"/>
<path d="M102.571 17.6711L106.316 26" stroke="#00293E" stroke-width="1.2" stroke-linecap="round"/>
<path d="M74.4785 14.7637V15.8672H64.7324V14.7637H74.4785ZM70.1523 10.2227V20.5742H68.9805V10.2227H70.1523Z" fill="#00293E"/>
<path d="M139.6 12.8594V13.9043H131.455V12.8594H139.6ZM139.6 16.873V17.918H131.455V16.873H139.6Z" fill="#00293E"/>
<rect x="159.6" y="0.6" width="11.8" height="11.8" rx="3.4" stroke="#00293E" stroke-width="1.2"/>
<rect x="173.6" y="10.6" width="11.8" height="11.8" rx="3.4" stroke="#00293E" stroke-width="1.2"/>
<rect x="152.6" y="16.6" width="11.8" height="11.8" rx="3.4" stroke="#00293E" stroke-width="1.2"/>
<path d="M176 16.6316L177.75 19L183 14" stroke="#00293E"/>
<path d="M162 6.63158L163.75 9L169 4" stroke="#00293E"/>
<path d="M155 22.6316L156.75 25L162 20" stroke="#00293E"/>
</svg>
