<svg width="180" height="30" viewBox="0 0 180 30" fill="none" xmlns="http://www.w3.org/2000/svg">
<rect x="0.6" y="0.6" width="47.8" height="27.8" rx="3.4" stroke="#00293E" stroke-width="1.2"/>
<path d="M15.8828 17.2031C15.8828 16.8906 15.8307 16.612 15.7266 16.3672C15.6224 16.1224 15.4505 15.9036 15.2109 15.7109C14.9766 15.513 14.6589 15.3307 14.2578 15.1641C13.862 14.9922 13.3672 14.8229 12.7734 14.6562C12.2057 14.4948 11.6927 14.3177 11.2344 14.125C10.776 13.9323 10.3828 13.7109 10.0547 13.4609C9.73177 13.2109 9.48438 12.9193 9.3125 12.5859C9.14062 12.2474 9.05469 11.8542 9.05469 11.4062C9.05469 10.9688 9.14844 10.5703 9.33594 10.2109C9.52344 9.85156 9.78646 9.54167 10.125 9.28125C10.4688 9.02083 10.8724 8.82031 11.3359 8.67969C11.8047 8.53906 12.3177 8.46875 12.875 8.46875C13.6719 8.46875 14.3594 8.61979 14.9375 8.92188C15.5208 9.22396 15.9714 9.63281 16.2891 10.1484C16.612 10.6589 16.7734 11.2318 16.7734 11.8672H15.8125C15.8125 11.3724 15.6953 10.9323 15.4609 10.5469C15.2318 10.1562 14.8984 9.85156 14.4609 9.63281C14.0286 9.40885 13.5 9.29688 12.875 9.29688C12.25 9.29688 11.724 9.39323 11.2969 9.58594C10.875 9.77344 10.5547 10.026 10.3359 10.3438C10.1224 10.6562 10.0156 11.0052 10.0156 11.3906C10.0156 11.6615 10.0677 11.9115 10.1719 12.1406C10.276 12.3646 10.4453 12.5755 10.6797 12.7734C10.9193 12.9661 11.2344 13.1484 11.625 13.3203C12.0156 13.487 12.4974 13.6458 13.0703 13.7969C13.6745 13.9635 14.2109 14.1484 14.6797 14.3516C15.1484 14.5547 15.5443 14.7891 15.8672 15.0547C16.1901 15.3151 16.4349 15.6198 16.6016 15.9688C16.7682 16.3177 16.8516 16.724 16.8516 17.1875C16.8516 17.651 16.7526 18.0677 16.5547 18.4375C16.362 18.8021 16.0885 19.112 15.7344 19.3672C15.3854 19.6224 14.9714 19.8177 14.4922 19.9531C14.0182 20.0885 13.5 20.1562 12.9375 20.1562C12.4323 20.1562 11.9297 20.0911 11.4297 19.9609C10.9297 19.8307 10.4714 19.6302 10.0547 19.3594C9.64323 19.0833 9.3125 18.7292 9.0625 18.2969C8.81771 17.8646 8.69531 17.349 8.69531 16.75H9.64844C9.64844 17.2292 9.74479 17.6328 9.9375 17.9609C10.1302 18.2891 10.3854 18.5547 10.7031 18.7578C11.026 18.9609 11.3802 19.1094 11.7656 19.2031C12.1562 19.2917 12.5469 19.3359 12.9375 19.3359C13.5365 19.3359 14.0547 19.2474 14.4922 19.0703C14.9349 18.8932 15.276 18.6458 15.5156 18.3281C15.7604 18.0052 15.8828 17.6302 15.8828 17.2031ZM19.6406 8V20H18.7109V8H19.6406ZM19.4297 15.25L19.0156 15.0156C19.0469 14.5156 19.1484 14.0469 19.3203 13.6094C19.4922 13.1719 19.724 12.7865 20.0156 12.4531C20.3125 12.1198 20.6589 11.8594 21.0547 11.6719C21.4557 11.4844 21.8984 11.3906 22.3828 11.3906C22.8047 11.3906 23.1823 11.4479 23.5156 11.5625C23.849 11.6771 24.1328 11.8594 24.3672 12.1094C24.6016 12.3594 24.7786 12.6797 24.8984 13.0703C25.0234 13.4609 25.0859 13.9375 25.0859 14.5V20H24.1484V14.4922C24.1484 13.9089 24.0677 13.4531 23.9062 13.125C23.7448 12.7917 23.5156 12.5547 23.2188 12.4141C22.9219 12.2734 22.5703 12.2031 22.1641 12.2031C21.7161 12.2031 21.3229 12.3021 20.9844 12.5C20.651 12.6927 20.3698 12.9453 20.1406 13.2578C19.9167 13.5651 19.7448 13.8958 19.625 14.25C19.5052 14.599 19.4401 14.9323 19.4297 15.25ZM28.5312 11.5469V20H27.6016V11.5469H28.5312ZM27.4375 9.10156C27.4375 8.92448 27.4922 8.77604 27.6016 8.65625C27.7161 8.53125 27.8724 8.46875 28.0703 8.46875C28.2682 8.46875 28.4245 8.53125 28.5391 8.65625C28.6589 8.77604 28.7188 8.92448 28.7188 9.10156C28.7188 9.27344 28.6589 9.42188 28.5391 9.54688C28.4245 9.66667 28.2682 9.72656 28.0703 9.72656C27.8724 9.72656 27.7161 9.66667 27.6016 9.54688C27.4922 9.42188 27.4375 9.27344 27.4375 9.10156ZM32.6875 20H31.7578V10.5C31.7578 9.92188 31.8568 9.4349 32.0547 9.03906C32.2578 8.64323 32.5443 8.34375 32.9141 8.14062C33.2891 7.9375 33.7344 7.83594 34.25 7.83594C34.4115 7.83594 34.5781 7.84635 34.75 7.86719C34.9219 7.88281 35.0885 7.91667 35.25 7.96875L35.1797 8.75781C35.0495 8.72135 34.9167 8.69792 34.7812 8.6875C34.651 8.67188 34.4974 8.66406 34.3203 8.66406C33.9818 8.66406 33.6901 8.73698 33.4453 8.88281C33.2005 9.02344 33.013 9.22917 32.8828 9.5C32.7526 9.77083 32.6875 10.1042 32.6875 10.5V20ZM34.7031 11.5469V12.3125H30.3594V11.5469H34.7031ZM39.5781 11.5469V12.3125H35.3438V11.5469H39.5781ZM36.8984 9.375H37.8281V17.9453C37.8281 18.3359 37.8802 18.6302 37.9844 18.8281C38.0885 19.026 38.224 19.1589 38.3906 19.2266C38.5573 19.2943 38.737 19.3281 38.9297 19.3281C39.0703 19.3281 39.2057 19.3203 39.3359 19.3047C39.4661 19.2839 39.5833 19.263 39.6875 19.2422L39.7266 20.0312C39.612 20.0677 39.4635 20.0964 39.2812 20.1172C39.099 20.1432 38.9167 20.1562 38.7344 20.1562C38.375 20.1562 38.0573 20.0911 37.7812 19.9609C37.5052 19.8255 37.2891 19.5964 37.1328 19.2734C36.9766 18.9453 36.8984 18.5 36.8984 17.9375V9.375Z" fill="#00293E"/>
<path d="M139.6 12.8594V13.9043H131.455V12.8594H139.6ZM139.6 16.873V17.918H131.455V16.873H139.6Z" fill="#00293E"/>
<path d="M74.4785 14.7637V15.8672H64.7324V14.7637H74.4785ZM70.1523 10.2227V20.5742H68.9805V10.2227H70.1523Z" fill="#00293E"/>
<path d="M109.797 17.5947H102.992C102.723 17.5947 102.465 17.7032 102.277 17.8957L97.7152 22.5638C97.0886 23.205 96 22.7613 96 21.8649V5.22598C96 4.36327 97.0192 3.90541 97.6641 4.47838L110.461 15.8471C111.149 16.4578 110.717 17.5947 109.797 17.5947Z" stroke="#00293E" stroke-width="1.2"/>
<path d="M102.571 17.6711L106.316 26" stroke="#00293E" stroke-width="1.2" stroke-linecap="round"/>
<rect x="149.75" y="1.25" width="21.5" height="21.5" fill="#D7D7D7" fill-opacity="0.53" stroke="#2B2929" stroke-width="1.5" stroke-dasharray="2 2"/>
<path d="M172.727 16.8182V30" stroke="#00293E"/>
<path d="M166.136 24.0682H179.318" stroke="#00293E"/>
</svg>
